<?xml version="1.0" encoding="UTF-8"?>
<svg version="1.1" xmlns="http://www.w3.org/2000/svg" width="512" height="512">
<path d="M0 0 C2.57344713 -0.00269909 5.14689325 -0.00658498 7.72033691 -0.01159668 C13.09638195 -0.017472 18.47213725 -0.00938112 23.84814453 0.00976562 C30.02915053 0.03152769 36.20962843 0.02447372 42.39062166 0.00246 C48.38090466 -0.01800584 54.37093312 -0.01567902 60.36125183 -0.00401306 C62.89039689 -0.00136043 65.41955559 -0.00456348 67.94868469 -0.01393127 C87.78272845 -0.07128825 105.39204142 1.23495922 120.6875 15.49609375 C134.86074219 30.62777239 138.74972758 47.27540266 138.73901367 67.34863281 C138.74237228 68.27370132 138.7457309 69.19876984 138.74919128 70.15187073 C138.7586113 73.1793862 138.76063987 76.20684583 138.76171875 79.234375 C138.7649376 81.361308 138.76830213 83.48824079 138.77180481 85.61517334 C138.77777377 90.06327833 138.77964702 94.51136395 138.77905273 98.95947266 C138.77895125 104.62564817 138.79259912 110.29169799 138.80982494 115.95784378 C138.82100881 120.34880124 138.82296999 124.73972892 138.82244301 129.13069916 C138.82361368 131.21802961 138.82798343 133.30536107 138.83577538 135.39267731 C138.91324527 158.28819134 137.40981155 178.27105066 120.90625 195.78125 C104.13185634 211.72071909 85.38741335 212.14509029 63.5625 212.0625 C61.03771821 212.06519986 58.51293744 212.06908638 55.98815918 212.07409668 C50.71647108 212.07996837 45.4449875 212.07189395 40.17333984 212.05273438 C34.11672931 212.03097324 28.06065778 212.03802755 22.00406027 212.06004 C16.12858632 212.08052274 10.25331379 212.07817269 4.37782288 212.06651306 C1.89974388 212.06386314 -0.57834907 212.06705374 -3.05641174 212.07643127 C-24.64034039 212.14020408 -40.81603263 210.13010008 -57.15234375 194.81640625 C-68.84853038 182.95805412 -73.88345141 168.42142233 -73.81030273 151.94799805 C-73.81716599 150.84721924 -73.82402924 149.74644043 -73.83110046 148.61230469 C-73.84926749 145.00572479 -73.8455447 141.39958419 -73.83984375 137.79296875 C-73.84441086 135.26389934 -73.849718 132.73483116 -73.85572815 130.20576477 C-73.86463984 124.91618924 -73.86249578 119.62672579 -73.85229492 114.3371582 C-73.84082989 108.25847406 -73.85487507 102.18023198 -73.8816914 96.10160607 C-73.90668375 90.21174112 -73.90899825 84.32204561 -73.90257454 78.43213844 C-73.90242209 75.94567951 -73.90840269 73.45921175 -73.92086601 70.97278404 C-74.01153053 49.91932836 -72.3947569 32.7694547 -57.21875 16.71875 C-51.83186892 11.61848333 -46.21607638 7.51149696 -39.40625 4.53125 C-38.66112152 4.19919052 -37.91599304 3.86713104 -37.14828491 3.52500916 C-25.19429421 -0.96803894 -12.5810754 -0.04659979 0 0 Z M-45.08203125 40.11328125 C-49.04025194 47.34082877 -49.84799494 54.26862288 -49.81030273 62.40014648 C-49.81716599 63.44853699 -49.82402924 64.49692749 -49.83110046 65.5770874 C-49.84929896 69.01897997 -49.84554084 72.46041371 -49.83984375 75.90234375 C-49.84440875 78.30933275 -49.84971527 80.71632045 -49.85572815 83.12330627 C-49.86464555 88.15916247 -49.86225148 93.19485995 -49.85229492 98.23071289 C-49.84080521 104.66759547 -49.86102449 111.10392946 -49.89021206 117.54074001 C-49.90860264 122.50889027 -49.90827588 127.47690975 -49.90257454 132.44508553 C-49.90242169 134.81762525 -49.90843602 137.19017403 -49.92086601 139.5626812 C-49.93582832 142.88645225 -49.92505963 146.20921828 -49.90795898 149.53295898 C-49.91762695 150.50209732 -49.92729492 151.47123566 -49.93725586 152.46974182 C-49.82428257 163.01426297 -45.91107188 172.08339072 -38.40625 179.53125 C-29.87774133 185.84315737 -22.33019802 187.83142515 -11.87792969 187.82177734 C-10.82997726 187.82849457 -9.78202484 187.83521179 -8.70231628 187.84213257 C-5.24420403 187.86110131 -1.78628602 187.8650364 1.671875 187.8671875 C4.08315103 187.87361678 6.49442628 187.88034524 8.90570068 187.88735962 C13.95945035 187.89933001 19.01313169 187.90304074 24.06689453 187.90185547 C30.52737917 187.90165243 36.98742318 187.92894035 43.4478035 187.96339989 C48.42881259 187.98569198 53.40971609 187.98969227 58.39076996 187.98863602 C60.77169054 187.99098903 63.15261416 187.99979555 65.53348541 188.01530075 C68.87191665 188.03500427 72.20940352 188.02910455 75.54785156 188.01708984 C77.00862877 188.03394836 77.00862877 188.03394836 78.49891663 188.05114746 C88.4547335 187.96058419 97.40042347 184.53096733 104.59375 177.53125 C111.75327617 168.86073902 113.89432381 161.91080695 113.88427734 150.81933594 C113.89099457 149.75187637 113.89771179 148.68441681 113.90463257 147.58460999 C113.92360383 144.0615674 113.92753652 140.53871546 113.9296875 137.015625 C113.93611659 134.55950849 113.94284503 132.10339274 113.94985962 129.64727783 C113.96183062 124.4993716 113.96554067 119.35153245 113.96435547 114.20361328 C113.96415243 107.62206368 113.99144093 101.04094657 114.02589989 94.45949936 C114.04818953 89.38584434 114.05219235 84.31229301 114.05113602 79.23859406 C114.05348938 76.81301637 114.06229785 74.38743572 114.07780075 71.96190643 C114.09749931 68.56121468 114.09160642 65.16145038 114.07958984 61.76074219 C114.09082886 60.76818924 114.10206787 59.77563629 114.11364746 58.75300598 C114.0185536 48.10837321 110.39437292 40.40533307 103.109375 32.734375 C97.53188713 27.84974276 90.55456241 24.42380587 83.07955933 24.38407898 C81.69192635 24.37334602 81.69192635 24.37334602 80.27626038 24.36239624 C78.75675026 24.35836288 78.75675026 24.35836288 77.20654297 24.35424805 C76.13791519 24.34767685 75.06928741 24.34110565 73.96827698 24.33433533 C70.42416312 24.31459105 66.88009171 24.30293602 63.3359375 24.29296875 C62.12530766 24.28889322 60.91467781 24.2848177 59.66736221 24.28061867 C53.25740987 24.25975128 46.84747897 24.24545347 40.4375 24.23608398 C33.82328269 24.22502936 27.2094027 24.19064178 20.59530449 24.15091228 C15.50454085 24.12473669 10.41385739 24.11639118 5.32303238 24.11280251 C2.88545585 24.10793759 0.44788287 24.0963264 -1.98962784 24.07776451 C-5.40758017 24.05335825 -8.82466257 24.05434155 -12.24267578 24.0612793 C-13.74396782 24.04206421 -13.74396782 24.04206421 -15.27558899 24.02246094 C-27.82641862 24.11497682 -37.53728653 30.32024584 -45.08203125 40.11328125 Z " fill="#000000" transform="translate(79.40625,294.46875)"/>
<path d="M0 0 C1.65116821 -0.01029488 1.65116821 -0.01029488 3.33569336 -0.02079773 C6.94227326 -0.03896476 10.54841386 -0.03524197 14.1550293 -0.02954102 C16.68409871 -0.03410812 19.21316688 -0.03941526 21.74223328 -0.04542542 C27.03180881 -0.05433711 32.32127226 -0.05219305 37.61083984 -0.04199219 C43.68952399 -0.03052716 49.76776607 -0.04457233 55.84639198 -0.07138866 C61.73625693 -0.09638102 67.62595244 -0.09869551 73.5158596 -0.0922718 C76.00231854 -0.09211935 78.4887863 -0.09809996 80.975214 -0.11056328 C101.98057621 -0.20102069 119.08148131 1.42118632 135.16674805 16.46655273 C148.90704641 30.94152023 152.57243127 47.71996502 152.56201172 67.20556641 C152.56537033 68.12902863 152.56872894 69.05249084 152.57218933 70.00393677 C152.58161013 73.02664574 152.58363804 76.04929878 152.5847168 79.07202148 C152.58793587 81.19655886 152.59130042 83.32109601 152.59480286 85.44563293 C152.60077222 89.88954176 152.60264505 94.3334312 152.60205078 98.77734375 C152.60194936 104.43445284 152.61559057 110.09143585 152.63282299 115.74851513 C152.64401527 120.13522396 152.64596777 124.52190301 152.64544106 128.90862465 C152.64661073 130.99233751 152.65097464 133.07605139 152.65877342 135.15974998 C152.72802512 155.57516742 152.08410058 173.36629286 139.41674805 190.40405273 C138.69487305 191.41467773 137.97299805 192.42530273 137.22924805 193.46655273 C128.72274883 203.2503857 114.82807363 210.62304986 101.85769081 211.59601974 C98.89515985 211.67709559 95.93825721 211.69715094 92.97460938 211.69458008 C91.29242813 211.70465591 91.29242813 211.70465591 89.57626343 211.7149353 C85.88372312 211.73386938 82.19136508 211.73783742 78.4987793 211.73999023 C75.91818671 211.74642204 73.33759486 211.75315068 70.75700378 211.76016235 C65.35116577 211.77212418 59.94539939 211.77593035 54.53955078 211.7746582 C48.32176153 211.77345899 42.10432061 211.79452621 35.88661939 211.82614553 C29.87235758 211.85562294 23.85828238 211.86262957 17.84393883 211.86143875 C15.30082466 211.86378763 12.75770748 211.87257061 10.21463966 211.88810349 C-15.25857578 212.02910859 -15.25857578 212.02910859 -25.58325195 207.40405273 C-26.74083008 206.89745117 -27.8984082 206.39084961 -29.09106445 205.86889648 C-44.05782877 197.13456089 -54.17525261 184.65854413 -58.76489258 167.90942383 C-60.85606676 157.97762329 -60.1526882 147.46371789 -60.11450195 137.37280273 C-60.11720182 134.84802095 -60.12108833 132.32324018 -60.12609863 129.79846191 C-60.13197032 124.52677382 -60.12389591 119.25529023 -60.10473633 113.98364258 C-60.08297519 107.92703204 -60.09002951 101.87096051 -60.11204195 95.814363 C-60.13252469 89.93888905 -60.13017464 84.06361652 -60.11851501 78.18812561 C-60.11586509 75.71004662 -60.11905569 73.23195366 -60.12843323 70.75389099 C-60.19220603 49.16996234 -58.18210204 32.9942701 -42.8684082 16.65795898 C-31.01005607 4.96177235 -16.47342428 -0.07314867 0 0 Z M-28.3059082 36.50952148 C-34.15187922 44.85475284 -36.03368767 52.11595228 -35.98730469 62.15942383 C-35.99416794 63.2076683 -36.00103119 64.25591278 -36.00810242 65.33592224 C-36.02632599 68.7832514 -36.02253881 72.23012348 -36.0168457 75.67749023 C-36.02140987 78.08590848 -36.02671615 80.49432542 -36.0327301 82.90274048 C-36.04165271 87.94457294 -36.03924792 92.98624694 -36.02929688 98.02807617 C-36.01781324 104.47283445 -36.03801446 110.91704432 -36.06721401 117.36173058 C-36.08560605 122.33417202 -36.08527742 127.3064828 -36.07957649 132.27894974 C-36.07942362 134.65428054 -36.08543949 137.02962038 -36.09786797 139.40491867 C-36.11283099 142.7335879 -36.10206063 146.06125364 -36.08496094 149.38989258 C-36.09462891 150.36060196 -36.10429688 151.33131134 -36.11425781 152.33143616 C-36.00789489 162.27459981 -32.57408599 171.2198552 -25.58325195 178.40405273 C-16.91274098 185.5635789 -9.9628089 187.70462655 1.12866211 187.69458008 C2.72985146 187.70465591 2.72985146 187.70465591 4.36338806 187.7149353 C7.88643064 187.73390657 11.40928258 187.73783926 14.93237305 187.73999023 C17.38848956 187.74641932 19.8446053 187.75314777 22.30072021 187.76016235 C27.44862645 187.77213336 32.59646559 187.77584341 37.74438477 187.7746582 C44.32593437 187.77445516 50.90705148 187.80174366 57.48849869 187.83620262 C62.5621537 187.85849227 67.63570503 187.86249508 72.70940399 187.86143875 C75.13498168 187.86379211 77.56056233 187.87260059 79.98609161 187.88810349 C83.38678337 187.90780205 86.78654767 187.90190916 90.18725586 187.88989258 C91.17980881 187.90113159 92.17236176 187.91237061 93.19499207 187.9239502 C103.83962484 187.82885634 111.54266498 184.20467565 119.21362305 176.91967773 C124.09825528 171.34218986 127.52419218 164.36486515 127.56391907 156.88986206 C127.57107437 155.96477341 127.57822968 155.03968475 127.58560181 154.08656311 C127.58829071 153.07355637 127.59097961 152.06054962 127.59375 151.0168457 C127.6036068 149.41390404 127.6036068 149.41390404 127.61366272 147.77857971 C127.633407 144.23446586 127.64506203 140.69039444 127.6550293 137.14624023 C127.65910482 135.93561039 127.66318035 134.72498055 127.66737938 133.47766495 C127.68824677 127.06771261 127.70254458 120.65778171 127.71191406 114.24780273 C127.72296869 107.63358542 127.75735627 101.01970543 127.79708576 94.40560722 C127.82326136 89.31484359 127.83160686 84.22416012 127.83519554 79.13333511 C127.84006046 76.69575858 127.85167164 74.25818561 127.87023354 71.8206749 C127.89463979 68.40272256 127.8936565 64.98564016 127.88671875 61.56762695 C127.89952881 60.56676559 127.91233887 59.56590424 127.92553711 58.53471375 C127.85315311 48.71500321 124.20712167 40.52742975 117.41674805 33.40405273 C108.51140222 25.92650615 101.13536561 24.10300076 89.77490234 24.11352539 C88.72680389 24.10680817 87.67870544 24.10009094 86.59884644 24.09317017 C83.14617119 24.07422744 79.69369072 24.07026783 76.2409668 24.06811523 C73.83112001 24.06168478 71.421274 24.05495624 69.01142883 24.04794312 C63.9636555 24.03597969 58.91595057 24.03226134 53.86816406 24.03344727 C47.41555516 24.03365041 40.96338691 24.00634829 34.51088238 23.97190285 C29.53416448 23.94961252 24.55755227 23.94561039 19.58078957 23.94666672 C17.20266006 23.94431399 14.82452749 23.93550907 12.44644737 23.92000198 C9.11291438 23.90029941 5.78032716 23.90619751 2.44677734 23.91821289 C1.47449692 23.90697388 0.50221649 23.89573486 -0.49952698 23.88415527 C-11.25793146 23.98217289 -21.38237725 28.0474281 -28.3059082 36.50952148 Z " fill="#000000" transform="translate(65.583251953125,5.595947265625)"/>
<path d="M0 0 C2.52478179 -0.00269986 5.04956256 -0.00658638 7.57434082 -0.01159668 C12.84602892 -0.01746837 18.1175125 -0.00939395 23.38916016 0.00976562 C29.44577069 0.03152676 35.50184222 0.02447245 41.55843973 0.00246 C47.43391368 -0.01802274 53.30918621 -0.01567269 59.18467712 -0.00401306 C61.66275612 -0.00136314 64.14084907 -0.00455374 66.61891174 -0.01393127 C88.20284039 -0.07770408 104.37853263 1.93239992 120.71484375 17.24609375 C133.67078111 30.38166283 137.50420564 45.80569473 137.46875 63.84375 C137.49667411 65.18816623 137.52531629 66.53256774 137.5546875 67.87695312 C137.57634465 78.66762567 137.57634465 78.66762567 134.625 82.38671875 C130.3786332 85.81503547 126.27022947 86.09148462 120.96875 85.53125 C117.69026664 84.21985666 116.3420361 83.07716962 114.35546875 80.171875 C112.35808174 74.92803079 112.61177232 69.96900426 112.59375 64.40625 C112.39319549 55.10787457 112.05102827 47.56733102 106.96875 39.53125 C106.60910156 38.92925781 106.24945313 38.32726563 105.87890625 37.70703125 C101.45152805 31.45198091 93.19071579 27.46728359 85.96875 25.53125 C82.45916547 25.23438649 78.96102908 25.23747302 75.44042969 25.24072266 C74.39247726 25.23400543 73.34452484 25.22728821 72.26481628 25.22036743 C68.80670403 25.20139869 65.34878602 25.1974636 61.890625 25.1953125 C59.47934897 25.18888322 57.06807372 25.18215476 54.65679932 25.17514038 C49.60304965 25.16316999 44.54936831 25.15945926 39.49560547 25.16064453 C33.03512083 25.16084757 26.57507682 25.13355965 20.1146965 25.09910011 C15.13368741 25.07680802 10.15278391 25.07280773 5.17173004 25.07386398 C2.79080946 25.07151097 0.40988584 25.06270445 -1.97098541 25.04719925 C-5.30941665 25.02749573 -8.64690352 25.03339545 -11.98535156 25.04541016 C-12.95920303 25.03417114 -13.9330545 25.02293213 -14.93641663 25.01135254 C-24.89363379 25.10192855 -33.83146042 28.53231292 -41.03125 35.53125 C-47.65949718 43.73554706 -49.33116734 50.87644869 -49.32177734 61.24316406 C-49.32849457 62.31062363 -49.33521179 63.37808319 -49.34213257 64.47789001 C-49.36110383 68.0009326 -49.36503652 71.52378454 -49.3671875 75.046875 C-49.37361659 77.50299151 -49.38034503 79.95910726 -49.38735962 82.41522217 C-49.39933062 87.5631284 -49.40304067 92.71096755 -49.40185547 97.85888672 C-49.40165243 104.44043632 -49.42894093 111.02155343 -49.46339989 117.60300064 C-49.48568953 122.67665566 -49.48969235 127.75020699 -49.48863602 132.82390594 C-49.49098938 135.24948363 -49.49979785 137.67506428 -49.51530075 140.10059357 C-49.53499931 143.50128532 -49.52910642 146.90104962 -49.51708984 150.30175781 C-49.53394836 151.79058723 -49.53394836 151.79058723 -49.55114746 153.30949402 C-49.4612044 163.37755624 -46.25131261 171.27479356 -39.29296875 178.5546875 C-26.88310447 189.39992295 -9.96404219 187.83206861 5.4375 187.796875 C7.52535039 187.79822472 9.61320048 187.8001678 11.7010498 187.80267334 C16.06163547 187.80561017 20.4221388 187.80137351 24.78271484 187.79199219 C30.34716091 187.7805986 35.91141397 187.78716581 41.47585297 187.79913712 C45.78262767 187.80639473 50.08935729 187.80404992 54.39613342 187.79888153 C56.44686405 187.79755581 58.49759889 187.79915458 60.54832458 187.80384064 C83.63014605 188.10058887 83.63014605 188.10058887 103.3671875 177.30078125 C109.62909025 170.38214236 112.24903648 161.89749908 112.27734375 152.71875 C112.30249404 151.21614179 112.3278922 149.71353771 112.35351562 148.2109375 C112.38225561 145.86752309 112.40630654 143.52418002 112.42504883 141.18066406 C112.44679087 138.90133387 112.4862186 136.62280113 112.52734375 134.34375 C112.52745956 133.64983154 112.52757538 132.95591309 112.5276947 132.2409668 C112.6208569 127.62512991 113.56677726 124.4650055 115.96875 120.53125 C119.57337322 117.3507001 123.09194564 116.96170496 127.74609375 117.1015625 C131.55225909 117.83737654 133.32545706 119.75579241 135.96875 122.53125 C137.57327718 125.74030437 137.17441542 129.2384905 137.20703125 132.765625 C137.215103 133.59523743 137.22317474 134.42484985 137.23149109 135.27960205 C137.24534641 137.04494128 137.25606206 138.81030746 137.26391602 140.57568359 C137.27533488 142.35799156 137.29562255 144.14026815 137.32543945 145.92236328 C137.64525875 165.04362644 134.45940612 180.79133162 120.90625 195.28125 C108.73146329 206.83811201 94.93808797 212.00823032 78.18603516 211.93530273 C77.06414291 211.94216599 75.94225067 211.94902924 74.78636169 211.95610046 C71.11004666 211.9742704 67.43416242 211.97054463 63.7578125 211.96484375 C61.18150699 211.96941038 58.60520269 211.97471738 56.02890015 211.98072815 C50.64095507 211.98964018 45.25317275 211.98749487 39.86523438 211.97729492 C33.66951794 211.9658237 27.4742349 211.97988539 21.27857554 212.0066914 C15.27870515 212.03166185 9.27905496 212.03400222 3.27912521 212.02757454 C0.74439142 212.02742195 -1.79035096 212.03341406 -4.32505417 212.04586601 C-24.19074314 212.12971649 -41.80213899 210.85309019 -57.125 196.56640625 C-68.9208347 183.9729024 -74.33657138 170.14342807 -74.32177734 153.08911133 C-74.32849457 151.96765717 -74.33521179 150.846203 -74.34213257 149.69076538 C-74.36106665 145.99822507 -74.36503469 142.30586703 -74.3671875 138.61328125 C-74.3736193 136.03268867 -74.38034795 133.45209681 -74.38735962 130.87150574 C-74.39932145 125.46566772 -74.40312761 120.05990135 -74.40185547 114.65405273 C-74.40065625 108.43626349 -74.42172348 102.21882257 -74.4533428 96.00112134 C-74.48282021 89.98685953 -74.48982683 83.97278433 -74.48863602 77.95844078 C-74.4909849 75.41532661 -74.49976788 72.87220943 -74.51530075 70.32914162 C-74.65630585 44.85592617 -74.65630585 44.85592617 -70.03125 34.53125 C-69.52464844 33.37367187 -69.01804687 32.21609375 -68.49609375 31.0234375 C-59.76175815 16.05667318 -47.28574139 5.93924935 -30.53662109 1.34960938 C-20.60482056 -0.74156481 -10.09091515 -0.03818625 0 0 Z " fill="#000000" transform="translate(369.03125,5.46875)"/>
<path d="M0 0 C2.88257177 1.20107157 4.33614293 2.05120547 6.11080933 4.58758545 C7.41794002 8.1338902 7.26099816 11.61998382 7.22705078 15.34863281 C7.22734283 16.18802399 7.22763489 17.02741516 7.22793579 17.89224243 C7.22654409 20.66264231 7.21099039 23.43277219 7.1953125 26.203125 C7.1915818 28.12554782 7.1887351 30.04797255 7.18673706 31.97039795 C7.17910508 37.02731588 7.15946027 42.08411872 7.1373291 47.14099121 C7.11686134 52.30231164 7.10773335 57.46365068 7.09765625 62.625 C7.07621401 72.75005054 7.04208326 82.87501569 7 93 C8.03681412 92.99333817 9.07362823 92.98667633 10.14186096 92.97981262 C19.92588287 92.91892546 29.70986619 92.87399084 39.49403477 92.84456348 C44.52385433 92.82892585 49.5535206 92.80772226 54.58325195 92.77368164 C59.43970682 92.74102045 64.29601448 92.72313268 69.15257072 92.71536827 C71.0028814 92.7098369 72.85318428 92.69903547 74.70343208 92.68280983 C77.30059167 92.66094562 79.89714755 92.65803682 82.49438477 92.65942383 C83.25467987 92.648638 84.01497498 92.63785217 84.79830933 92.6267395 C89.91094088 92.65617015 93.45038834 93.62685328 98 96 C101.23014356 99.54273809 101.5689765 103.14211538 101.4296875 107.77734375 C100.69387346 111.58350909 98.77545759 113.35670706 96 116 C92.79311929 117.60344035 89.30817153 117.12922745 85.78662109 117.11352539 C84.51334206 117.11374443 84.51334206 117.11374443 83.21434021 117.1139679 C80.40068023 117.11326966 77.58708596 117.1054814 74.7734375 117.09765625 C72.82573482 117.09579175 70.87803168 117.094368 68.93032837 117.09336853 C63.79779776 117.08954583 58.66529533 117.07971765 53.53277588 117.06866455 C48.29789613 117.05844512 43.06301184 117.05386977 37.828125 117.04882812 C27.55207093 117.03809517 17.27603781 117.0210217 7 117 C7.01110306 118.07661896 7.02220612 119.15323792 7.03364563 120.26248169 C7.13505786 130.41465857 7.20998286 140.56673252 7.25906086 150.71930122 C7.28514088 155.93873348 7.32051016 161.15775643 7.37719727 166.37695312 C7.43157339 171.41497692 7.46143254 176.45260733 7.47438622 181.49090195 C7.483616 183.41185574 7.50163994 185.3327883 7.52865028 187.25357437 C7.56501539 189.94702718 7.56994229 192.63886023 7.56762695 195.33251953 C7.58560333 196.12446213 7.60357971 196.91640472 7.62210083 197.73234558 C7.584366 201.79651126 7.18506391 204.26650886 4.58952332 207.47921753 C1.40541201 210.57880421 -0.00739692 211.16317439 -4.3125 211.25 C-8.37589725 211.17825462 -10.89630986 210.82983513 -14 208 C-16.79063639 202.65000974 -17.42535508 198.47046661 -17.34057617 192.49438477 C-17.34123329 191.2639016 -17.34123329 191.2639016 -17.34190369 190.00856018 C-17.33982735 187.31925979 -17.31655144 184.63059663 -17.29296875 181.94140625 C-17.28736868 180.06811361 -17.28310052 178.19481656 -17.28010559 176.32151794 C-17.2686892 171.40760012 -17.23924974 166.49395124 -17.20599365 161.58013916 C-17.17522349 156.55932248 -17.16158544 151.53846206 -17.14648438 146.51757812 C-17.11437687 136.67826771 -17.06321946 126.83915628 -17 117 C-18.06631149 117.00666183 -19.13262299 117.01332367 -20.23124695 117.02018738 C-30.28078364 117.08100547 -40.33028299 117.12597603 -50.37996197 117.15543652 C-55.5465989 117.17109162 -60.71308725 117.19232722 -65.87963867 117.22631836 C-70.86576104 117.25891711 -75.85174049 117.27685418 -80.8379612 117.28463173 C-82.7401638 117.29017429 -84.64235859 117.30099755 -86.54450035 117.31719017 C-89.20911938 117.33897126 -91.87314805 117.34196664 -94.5378418 117.34057617 C-95.32402893 117.351362 -96.11021606 117.36214783 -96.92022705 117.3732605 C-101.4641087 117.34760796 -104.38476305 116.81254406 -108 114 C-110.90042404 109.77241224 -110.63887345 104.9273115 -110 100 C-108.15620446 96.59606978 -106.91799831 95.38777542 -103.37033081 93.88919067 C-99.42796773 92.84908135 -95.74285638 92.73441914 -91.69970703 92.77294922 C-90.88928452 92.77265717 -90.078862 92.77236511 -89.24388123 92.77206421 C-86.58174704 92.77345063 -83.91989742 92.78897926 -81.2578125 92.8046875 C-79.40550896 92.80842008 -77.55320344 92.81126589 -75.70089722 92.81326294 C-70.83799743 92.82088012 -65.97521809 92.84051213 -61.11236572 92.8626709 C-56.14523955 92.88317063 -51.17809383 92.89227347 -46.2109375 92.90234375 C-36.47390556 92.92375985 -26.73696282 92.95787263 -17 93 C-17.00999275 91.46357094 -17.00999275 91.46357094 -17.02018738 89.89610291 C-17.0810773 80.22981063 -17.12601047 70.56355741 -17.15543652 60.89711666 C-17.17107346 55.92783026 -17.19227576 50.95869905 -17.22631836 45.98950195 C-17.25898206 41.1914016 -17.27686784 36.39345025 -17.28463173 31.59524727 C-17.29016265 29.76726499 -17.30096322 27.93929061 -17.31719017 26.11137199 C-17.33905774 23.54534334 -17.34196305 20.97992563 -17.34057617 18.41381836 C-17.351362 17.66287399 -17.36214783 16.91192963 -17.3732605 16.13822937 C-17.33967293 10.37199406 -16.31304518 5.35632461 -12.12109375 1.0859375 C-8.23302415 -0.90463957 -4.24923985 -0.5096333 0 0 Z " fill="#000000" transform="translate(405,295)"/>
</svg>
