<svg xmlns="http://www.w3.org/2000/svg"  viewBox="0 0 48 48" width="48px" height="48px"><linearGradient id="SVGID_1_" x1="37.411" x2="10.592" y1="14.058" y2="40.876" gradientUnits="userSpaceOnUse"><stop offset="0" stop-color="#fee460"/><stop offset=".033" stop-color="#fee66a"/><stop offset=".197" stop-color="#feed97"/><stop offset=".362" stop-color="#fff4bd"/><stop offset=".525" stop-color="#fff9da"/><stop offset=".687" stop-color="#fffcee"/><stop offset=".846" stop-color="#fffefb"/><stop offset="1" stop-color="#fff"/></linearGradient><path fill="url(#SVGID_1_)" d="M42.592,32.574c-5.121-0.848-6.848-4.334-7.585-6.305c-0.188-0.502-0.244-0.962-0.21-1.088	c0.195-0.473,1.226-0.807,1.78-0.988c0.226-0.059,0.455-0.136,0.643-0.217c2.088-0.826,2.362-1.9,2.222-2.653	c-0.219-1.092-1.387-1.737-2.393-1.737c-0.317,0-0.613,0.066-0.857,0.192c-0.586,0.274-1.099,0.412-1.522,0.412	c-0.068,0-0.127-0.004-0.179-0.011c0.002-0.027,0.004-0.054,0.005-0.081c0.009-0.149,0.018-0.299,0.027-0.455l0.007-0.109	c0.177-2.722,0.358-5.717-0.523-7.732c-2.669-6.001-7.952-6.467-9.619-6.467c-0.002,0-0.004,0-0.005,0c-0.038,0-0.188,0-0.323-0.009	l-0.057-0.002L23.945,5.33c-0.134,0.009-0.285,0.009-0.323,0.009c-0.002,0-0.004,0-0.005,0c-1.665,0-6.949,0.466-9.616,6.461	c-0.884,2.022-0.703,5.015-0.525,7.737l0.007,0.122c0.007,0.143,0.016,0.294,0.027,0.443c0.002,0.027,0.004,0.054,0.005,0.082	c-0.052,0.005-0.111,0.011-0.179,0.011c-0.425,0-0.936-0.14-1.522-0.412c-0.244-0.125-0.539-0.192-0.857-0.192	c-1.005,0-2.176,0.645-2.391,1.724c-0.143,0.764,0.133,1.837,2.244,2.674c0.16,0.068,0.378,0.142,0.611,0.206	c0.59,0.192,1.593,0.523,1.787,0.989c0.034,0.125-0.022,0.584-0.21,1.086c-0.737,1.972-2.464,5.459-7.592,6.307	c-0.669,0.106-1.152,0.704-1.118,1.391l0.002,0.043l0.005,0.043c0.016,0.113,0.043,0.301,0.147,0.505	c0.48,1.056,2.117,1.787,5.13,2.291c0.05,0.176,0.1,0.418,0.127,0.543l0.014,0.063c0.059,0.265,0.125,0.566,0.222,0.873	c0.097,0.342,0.423,1.068,1.443,1.068c0.258,0,0.529-0.047,0.815-0.095l0.131-0.022c0.557-0.113,1.181-0.228,1.963-0.228	c0.444,0,0.919,0.039,1.371,0.113c0.866,0.143,1.672,0.719,2.525,1.33c1.418,1.02,3.025,2.178,5.574,2.178	c0.061,0,0.172-0.005,0.24-0.009c0.068,0.004,0.179,0.009,0.24,0.009c2.547,0,4.156-1.158,5.576-2.179	c0.851-0.608,1.658-1.185,2.525-1.328c0.452-0.073,0.925-0.113,1.369-0.113c0.781,0,1.405,0.115,1.93,0.22l0.165,0.029	c0.287,0.048,0.557,0.095,0.815,0.095c1.02,0,1.346-0.726,1.443-1.068c0.097-0.306,0.165-0.608,0.222-0.873l0.013-0.057	c0.029-0.131,0.081-0.373,0.129-0.55c3.009-0.502,4.649-1.235,5.13-2.291c0.104-0.204,0.131-0.393,0.145-0.496l0.005-0.043	l0.004-0.052C43.752,33.279,43.268,32.682,42.592,32.574z"/><path fill="#fac400" d="M42.149,30.152c-2.547-0.435-4.174-2.605-4.906-3.834c0.179-0.057,0.373-0.124,0.563-0.203	c3.701-1.465,3.545-4.086,3.408-4.854c-0.003-0.016-0.006-0.033-0.009-0.049c-0.426-2.173-2.564-3.346-4.359-3.346	c-0.065,0-0.13,0.001-0.195,0.004c0.086-2.289,0-4.604-0.802-6.411c-0.879-1.983-2.04-3.437-3.295-4.506	c-0.971-0.826-2.465-0.033-2.387,1.24c0.003,0.046,0.006,0.093,0.008,0.139c0.023,0.384,0.213,0.73,0.503,0.983	c0.924,0.807,1.778,1.891,2.428,3.357c0.777,1.754,0.581,4.832,0.425,7.302c-0.025,0.387-0.049,0.749-0.065,1.103	c0.041,0.041,0.368,0.362,1.104,0.362c0.54,0,1.162-0.165,1.857-0.494c0.115-0.058,0.262-0.082,0.417-0.082	c0.589,0,1.309,0.379,1.415,0.922c0.057,0.321-0.065,0.947-1.604,1.556c-0.139,0.058-0.319,0.115-0.507,0.173	c-0.769,0.247-1.939,0.617-2.291,1.465c-0.196,0.461-0.139,1.029,0.188,1.695c0.098,0.222,2.43,5.573,7.633,6.438	c0.188,0.025,0.327,0.198,0.319,0.395c-0.008,0.074-0.025,0.148-0.057,0.222c-0.213,0.502-1.178,1.218-4.565,1.745	c-0.286,0.049-0.393,0.478-0.548,1.169c-0.057,0.272-0.123,0.552-0.205,0.84c-0.098,0.337-0.319,0.379-0.524,0.379	c-0.196,0-0.458-0.049-0.761-0.107c-0.491-0.099-1.17-0.231-2.029-0.231c-0.475,0-0.974,0.041-1.464,0.124	c-1.023,0.173-1.882,0.782-2.798,1.432c-1.315,0.949-2.69,1.92-4.817,1.92C24.164,41,24,40.992,24,40.992S23.836,41,23.771,41	c-0.891,0-1.651-0.171-2.329-0.439c-0.812-0.321-1.722,0.116-1.978,0.951l-0.009,0.03c-0.225,0.732,0.146,1.516,0.856,1.8	C21.285,43.731,22.423,44,23.771,44c1.448,0,2.831-0.184,4.17-0.762c1.011-0.436,1.922-1.048,2.813-1.687	c0.015-0.011,0.03-0.022,0.046-0.033c0.583-0.414,1.2-0.852,1.547-0.91c0.317-0.053,0.652-0.082,0.965-0.082	c0.585,0,1.057,0.095,1.437,0.172c0.424,0.081,0.871,0.166,1.353,0.166c1.619,0,2.955-0.997,3.404-2.54	c0.019-0.066,0.037-0.132,0.055-0.198c2.244-0.492,4.354-1.355,5.145-3.224c0.135-0.305,0.234-0.677,0.277-1.063	c0.007-0.068,0.013-0.136,0.015-0.204C45.069,31.898,43.85,30.414,42.149,30.152z"/><path fill="#fac400" d="M26.834,5.5c-0.013-0.739-0.582-1.358-1.317-1.429c-0.469-0.045-0.861-0.059-1.161-0.059	c-0.034,0-0.123,0-0.205-0.004C24.101,4.001,24.05,4,24,4s-0.101,0.001-0.151,0.004c-0.082,0.004-0.172,0.004-0.217,0.004	c-1.919,0-8.417,0.537-11.481,7.448c-0.802,1.81-0.887,4.129-0.802,6.411c-0.064-0.003-0.129-0.004-0.195-0.004	c-1.796,0-3.934,1.173-4.359,3.346c-0.003,0.016-0.006,0.033-0.009,0.049c-0.137,0.768-0.293,3.389,3.452,4.872	c0.155,0.065,0.336,0.127,0.519,0.185c-0.734,1.231-2.36,3.4-4.906,3.834c-1.701,0.262-2.921,1.746-2.848,3.483	c0.003,0.068,0.008,0.136,0.015,0.204c0.043,0.387,0.142,0.758,0.294,1.104c0.775,1.829,2.868,2.686,5.127,3.182	c0.014,0.054,0.029,0.107,0.045,0.161c0.189,0.667,0.565,1.277,1.1,1.719c1.369,1.131,2.663,0.885,3.638,0.699	c0.411-0.082,0.883-0.178,1.468-0.178c0.321,0,0.646,0.013,0.959,0.092c0.405,0.103,0.753,0.341,1.182,0.341	c0.837,0,1.515-0.678,1.515-1.515c0-0.461-0.221-0.889-0.576-1.178c-0.351-0.286-0.807-0.394-1.255-0.529	c-0.58-0.17-1.223-0.208-1.824-0.208c-0.859,0-1.538,0.132-2.029,0.231c-0.303,0.058-0.565,0.107-0.761,0.107	c-0.205,0-0.425-0.041-0.524-0.379c-0.082-0.288-0.147-0.568-0.205-0.84c-0.155-0.691-0.262-1.12-0.548-1.169	c-3.387-0.527-4.353-1.243-4.565-1.745C6.025,33.657,6.009,33.583,6,33.508c-0.008-0.198,0.131-0.37,0.319-0.395	c5.203-0.864,7.535-6.215,7.641-6.454c0.319-0.65,0.376-1.218,0.18-1.679c-0.352-0.848-1.522-1.218-2.291-1.465	c-0.188-0.058-0.368-0.115-0.507-0.173c-1.538-0.609-1.661-1.235-1.604-1.556c0.106-0.543,0.826-0.922,1.415-0.922	c0.155,0,0.303,0.025,0.417,0.082c0.695,0.329,1.317,0.494,1.857,0.494c0.736,0,1.064-0.321,1.104-0.362	c-0.016-0.354-0.041-0.716-0.065-1.103c-0.155-2.47-0.352-5.549,0.425-7.302c2.332-5.261,7.282-5.664,8.738-5.664	C23.656,7.008,23.836,7.008,24,7c0.164,0.008,0.344,0.008,0.368,0.008c0.217,0,0.512,0.01,0.864,0.044	c0.875,0.084,1.62-0.634,1.603-1.513C26.835,5.526,26.834,5.513,26.834,5.5z"/></svg>